name C:\Users\antoi\Documents\MyRepositories\upper-imu-dc\Results\main_tracking\Case_76\FLX01_angularVelocities_bodyFrame.mot
datacolumns 4
datarows 82
range 3.51000000 4.32000000
endheader 
time	radius_imu_x	radius_imu_y	radius_imu_z	
          3.51000000	          0.02409359	          0.08817208	          0.07107222	
          3.52000000	          0.02808880	          0.08685654	          0.06932289	
          3.53000000	          0.03215646	          0.08559036	          0.06703530	
          3.54000000	          0.03619312	          0.08440775	          0.06430678	
          3.55000000	          0.04010188	          0.08333849	          0.06124357	
          3.56000000	          0.04379911	          0.08238841	          0.05795746	
          3.57000000	          0.04722007	          0.08151861	          0.05456315	
          3.58000000	          0.05032421	          0.08064223	          0.05117771	
          3.59000000	          0.05309822	          0.07962819	          0.04792001	
          3.60000000	          0.05555627	          0.07830820	          0.04491006	
          3.61000000	          0.05773786	          0.07649040	          0.04226888	
          3.62000000	          0.05970341	          0.07397625	          0.04011791	
          3.63000000	          0.06152835	          0.07057794	          0.03857779	
          3.64000000	          0.06329737	          0.06613371	          0.03776820	
          3.65000000	          0.06509850	          0.06051891	          0.03780762	
          3.66000000	          0.06701759	          0.05365413	          0.03881187	
          3.67000000	          0.06913318	          0.04550623	          0.04089217	
          3.68000000	          0.07151188	          0.03608667	          0.04415481	
          3.69000000	          0.07420629	          0.02545758	          0.04870245	
          3.70000000	          0.07725342	          0.01372194	          0.05462848	
          3.71000000	          0.08067256	          0.00100280	          0.06200843	
          3.72000000	          0.08446820	         -0.01255141	          0.07089575	
          3.73000000	          0.08863817	         -0.02675221	          0.08132470	
          3.74000000	          0.09318000	         -0.04138481	          0.09332689	
          3.75000000	          0.09807807	         -0.05623115	          0.10691721	
          3.76000000	          0.10328835	         -0.07108676	          0.12206851	
          3.77000000	          0.10875500	         -0.08576871	          0.13874038	
          3.78000000	          0.11442571	         -0.10011227	          0.15689571	
          3.79000000	          0.12024722	         -0.11398006	          0.17648431	
          3.80000000	          0.12616207	         -0.12727499	          0.19744188	
          3.81000000	          0.13211042	         -0.13993426	          0.21969791	
          3.82000000	          0.13803316	         -0.15192464	          0.24318086	
          3.83000000	          0.14387474	         -0.16324250	          0.26782020	
          3.84000000	          0.14958599	         -0.17391278	          0.29354724	
          3.85000000	          0.15512639	         -0.18398850	          0.32029573	
          3.86000000	          0.16046628	         -0.19354876	          0.34800195	
          3.87000000	          0.16558902	         -0.20269277	          0.37660438	
          3.88000000	          0.17049267	         -0.21153155	          0.40604301	
          3.89000000	          0.17519113	         -0.22017893	          0.43625820	
          3.90000000	          0.17971510	         -0.22874322	          0.46718942	
          3.91000000	          0.18411255	         -0.23732159	          0.49877445	
          3.92000000	          0.18844850	         -0.24599908	          0.53094955	
          3.93000000	          0.19280462	         -0.25485108	          0.56365016	
          3.94000000	          0.19727848	         -0.26394762	          0.59681103	
          3.95000000	          0.20198224	         -0.27335914	          0.63036487	
          3.96000000	          0.20704051	         -0.28315766	          0.66424074	
          3.97000000	          0.21258731	         -0.29340910	          0.69836200	
          3.98000000	          0.21876143	         -0.30416156	          0.73264300	
          3.99000000	          0.22570012	         -0.31543617	          0.76698608	
          4.00000000	          0.23353184	         -0.32722163	          0.80127898	
          4.01000000	          0.24236940	         -0.33946975	          0.83539249	
          4.02000000	          0.25230397	         -0.35209645	          0.86917968	
          4.03000000	          0.26340019	         -0.36499216	          0.90247622	
          4.04000000	          0.27569355	         -0.37803775	          0.93510193	
          4.05000000	          0.28919011	         -0.39112304	          0.96686305	
          4.06000000	          0.30386848	         -0.40416687	          0.99755529	
          4.07000000	          0.31968309	         -0.41713488	          1.02696755	
          4.08000000	          0.33656831	         -0.43005062	          1.05488670	
          4.09000000	          0.35444263	         -0.44299677	          1.08110341	
          4.10000000	          0.37321293	         -0.45610518	          1.10541922	
          4.11000000	          0.39277936	         -0.46953708	          1.12765423	
          4.12000000	          0.41304097	         -0.48345630	          1.14765468	
          4.13000000	          0.43390182	         -0.49800088	          1.16529954	
          4.14000000	          0.45527669	         -0.51325868	          1.18050545	
          4.15000000	          0.47709552	         -0.52925044	          1.19322981	
          4.16000000	          0.49930565	         -0.54591998	          1.20347167	
          4.17000000	          0.52187173	         -0.56312858	          1.21127056	
          4.18000000	          0.54477347	         -0.58065115	          1.21670345	
          4.19000000	          0.56800115	         -0.59817543	          1.21988081	
          4.20000000	          0.59154948	         -0.61530832	          1.22094248	
          4.21000000	          0.61541021	         -0.63159257	          1.22005410	
          4.22000000	          0.63956421	         -0.64653332	          1.21740354	
          4.23000000	          0.66397439	         -0.65963191	          1.21319671	
          4.24000000	          0.68858107	         -0.67042489	          1.20765231	
          4.25000000	          0.71330169	         -0.67852781	          1.20099572	
          4.26000000	          0.73803571	         -0.68368317	          1.19345199	
          4.27000000	          0.76267400	         -0.68580563	          1.18523825	
          4.28000000	          0.78711018	         -0.68501088	          1.17655547	
          4.29000000	          0.81125136	         -0.68161716	          1.16758125	
          4.30000000	          0.83502670	         -0.67612191	          1.15846503	
          4.31000000	          0.85839361	         -0.66916489	          1.14932672	
          4.32000000	          0.88134182	         -0.66148376	          1.14025745	
